PathFileType	4	(X/Y/Z)	pose_F01_0-97.trc
DataRate	CameraRate	NumFrames	NumMarkers	Units	OrigDataRate	OrigDataStartFrame	OrigNumFrames
30	30	9	21	m	30	12	97
Frame#	Time	CHip			RHip			RKnee			RAnkle			RBigToe			RSmallToe			RHeel			LHip			LKnee			LAnkle			LBigToe			LSmallToe			LHeel			Neck			Nose			RShoulder			RElbow			RWrist			LShoulder			LElbow			LWrist			
		X1	Y1	Z1	X2	Y2	Z2	X3	Y3	Z3	X4	Y4	Z4	X5	Y5	Z5	X6	Y6	Z6	X7	Y7	Z7	X8	Y8	Z8	X9	Y9	Z9	X10	Y10	Z10	X11	Y11	Z11	X12	Y12	Z12	X13	Y13	Z13	X14	Y14	Z14	X15	Y15	Z15	X16	Y16	Z16	X17	Y17	Z17	X18	Y18	Z18	X19	Y19	Z19	X20	Y20	Z20	X21	Y21	Z21	
12	0.4	-0.28392389775652244	1.820102254676324	-0.6019581606515522	-0.296261465036589	1.8182893402620666	-0.5506242418822946	-0.29543084771539535	1.6844071950381498	-0.5289030286502185	-0.30461258150412474	1.5518681181311476	-0.5338793437434675	-0.25600657192046655	1.5256123266990724	-0.5100394435992603	-0.2717464646967576	1.5258618518344893	-0.49295573808736287	-0.31141282390096914	1.5410434223267653	-0.5350960361783401	-0.2641261340751952	1.823349330884501	-0.6600389158847024	-0.2597047539161046	1.6887692082487553	-0.639957149442941				-0.3909502825762424	1.5406302499785298	-0.9248932397737553				-0.43040072164415877	1.5675538344193385	-0.8780382375899174	-0.27915485738660334	1.9831894655366953	-0.6240535385882197	-0.2292398315148574	2.0461914334935005	-0.6044685014706187	-0.30266815133385816	1.9834330013816084	-0.5582445583321836	-0.30794280073986735	1.9075951047756068	-0.48828811727424637	-0.2485136534241778	1.9492952697748531	-0.5511503640828768	-0.2559867756445148	1.9839972748452952	-0.6880568928211639	-0.2540970188550792	1.8936714203630676	-0.6925738321964077	-0.23135930608495214	1.8184676356457967	-0.6713206758979342
13	0.43333333333333335	-0.28230360228448054	1.8246047426492276	-0.6080850709090759	-0.29446237189245017	1.8240573491472896	-0.5569471146449785	-0.2970274735303995	1.6839260193044276	-0.536143061320709	-0.30554517464360575	1.5504448897513543	-0.5376279058026958	-0.2571137088805731	1.5249754736843746	-0.513713110522691	-0.2726697290928952	1.5268282093574923	-0.49724477454208604	-0.3124340852957714	1.5400977739304023	-0.5387649443541026	-0.26370513727153666	1.826059136557098	-0.6689251690892122	-0.27159736388186306	1.6870264103413273	-0.6235570940836864				-0.3909502825762424	1.5406302499785298	-0.9248932397737553				-0.43040072164415877	1.5675538344193385	-0.8780382375899174	-0.2790204109942037	1.9843636579078476	-0.6240208589032246	-0.23754736355046244	2.042920091968287	-0.6042482296709798	-0.30327337082381983	1.9842389607731417	-0.5526073446090802	-0.29855094383116026	1.908728675271182	-0.5020697042267536	-0.24690738532570328	1.960462007136695	-0.5646928504641592	-0.2549204947012379	1.9852663224783202	-0.693593070679275	-0.24889181116574494	1.8952496451998846	-0.7023583148533219	-0.23047000025692815	1.8183759742536398	-0.6767135783805487
14	0.4666666666666667	-0.28484968549595446	1.8249523677342743	-0.6177354191836006	-0.2961474090543384	1.824571051026794	-0.5636267966378774	-0.2952181233069001	1.6867468069138594	-0.5427690199002286	-0.30575876603154056	1.5518838980583363	-0.5374662452994817	-0.2572481797191909	1.5254921731894173	-0.5138196044818397	-0.274021930029184	1.5284318635525302	-0.5002042781361222	-0.31270189875140775	1.5413962086944881	-0.538952543478114	-0.26508489453022915	1.8274745248440376	-0.6755993451056558	-0.2705276055572618	1.6926228908061753	-0.6208477998395917				-0.3909502825762424	1.5406302499785298	-0.9248932397737553				-0.43040072164415877	1.5675538344193385	-0.8780382375899174	-0.2797771326071529	1.9867939650140563	-0.6270932155588842	-0.24265810233862878	2.0429555675565494	-0.6030078996013148	-0.30330887181235844	1.984189041901912	-0.5526422988949653	-0.29007385888850673	1.9102760725592998	-0.5107906809182787	-0.2472831845418239	1.9721571138171041	-0.571233187511924	-0.256220683259417	1.9901874040499592	-0.6997030069343594	-0.24866924056533896	1.9007776959747145	-0.7062112287344261	-0.23154554918796127	1.8200996899616038	-0.6818923019604732
15	0.5	-0.28370355657036816	1.8280866123489379	-0.6233518327338132	-0.29717117182132197	1.8281024999074547	-0.5671973846193209	-0.29842862930416464	1.6908759370794721	-0.5527555144996065	-0.30570938006212495	1.5519144616101492	-0.5372890775610502	-0.2560339665397797	1.5248072239302128	-0.5108889647862226	-0.2723732651346627	1.5258763514605074	-0.49718842327557994	-0.31136186465212123	1.5348821776823682	-0.5389025272571032	-0.26603741033311884	1.829414800880816	-0.6788539552780236	-0.2727381990712928	1.6945515619038776	-0.6271306214142591				-0.3909502825762424	1.5406302499785298	-0.9248932397737553				-0.43040072164415877	1.5675538344193385	-0.8780382375899174	-0.2846291916487588	1.986759873430871	-0.6344157157046858	-0.2464192723154002	2.042140897965001	-0.6147717444602486	-0.30355748850969694	1.9832718800438052	-0.5608827664638057	-0.2796352034306128	1.9123771161582446	-0.5306066476601364	-0.24921762397922922	1.9733719701084256	-0.5781495778070731	-0.261025455092759	1.9905094791185665	-0.7068920418359683	-1.1406653070479498	1.820731640508817	0.16671158239691014	-0.2326210981189944	1.8218234056695677	-0.6870710255403978
16	0.5333333333333333	-0.28445293671241983	1.8249997828860107	-0.6265034410578746	-0.2989866745187024	1.8220531148810697	-0.572969857460597	-0.2990018207849492	1.6902664039525719	-0.5566813202155148	-0.3052696287166963	1.5522934448379386	-0.5377801924534731	-0.2590443356030897	1.5241015336257386	-0.5119752594081312	-0.274063545802716	1.5263882888024345	-0.4956692475954642	-0.31136186465212123	1.5348821776823682	-0.5389025272571032	-0.26575798897164266	1.8293955258484815	-0.6871736312029274	-0.2767288517235613	1.6949462563397175	-0.6402382519002712				-0.3909502825762424	1.5406302499785298	-0.9248932397737553				-0.43040072164415877	1.5675538344193385	-0.8780382375899174	-0.28558958201269885	1.9860726789970096	-0.6457465759961108	-0.25044943177996354	2.0411875208013877	-0.6189747543279399	-0.30664599301514694	1.9813762064486846	-0.5699436660595699	-0.27980582429613177	1.9126903630975503	-0.5394405124151767	-0.25006718664251976	1.984449284061373	-0.5934289249038892	-0.2627560957290847	1.988384889646202	-0.7212685125714071	-1.127265501008491	1.8190959480363347	0.14228143272292337	-0.23348013425385333	1.8202651512696626	-0.6982109522033884
17	0.5666666666666667	-0.2931453951215903	1.8232646545833036	-0.6464155932060032	-0.30388648585779154	1.8235149806058375	-0.5892404526868521	-0.29571358723007773	1.6893288168064904	-0.5468537876524113	-0.30525031680934556	1.551749829350518	-0.537868994049019	-0.25918548640772876	1.5275408038549205	-0.5121032703425622	-0.27419882169461834	1.5271643575954623	-0.49562586165531436	-0.31136186465212123	1.5348821776823682	-0.5389025272571032	-0.2741272996392767	1.8266182103734643	-0.7070590832144242	-0.28694588816837135	1.6901547594286321	-0.6760250451448216				-0.3909502825762424	1.5406302499785298	-0.9248932397737553				-0.43040072164415877	1.5675538344193385	-0.8780382375899174	-0.2902829575308485	1.979953455839796	-0.6600020246642511	-0.25599497802252624	2.038204044791018	-0.6359693875854984	-0.3113767166194218	1.979029539138364	-0.584681359275139	-0.2856821632977657	1.9112560601146817	-0.5582121342033207	-0.2536619128434147	1.984006203101256	-0.6144512178833216	-0.2663674966123284	1.9811731817846563	-0.7323752216654441	-1.082881922590933	1.8157764369860192	0.06655979317633239	-0.24147524865319445	1.8203470288108385	-0.7148313533411526
18	0.6	-0.2987393015153563	1.8254278763051202	-0.653779677276267	-0.3084616672591188	1.8242096934236376	-0.6019545611251149	-0.30051404615931954	1.6934073267895131	-0.5596993493674071	-0.30525031680934556	1.551749829350518	-0.537868994049019	-0.26950030092080607	1.5293995748363411	-0.5021072784639228	-0.28408699914755864	1.5300226567099444	-0.48574597042110973	-0.31136186465212123	1.5348821776823682	-0.5389025272571032	-0.27742348854255255	1.8268676588579489	-0.7163284968903327	-0.2900539986407551	1.6902120617370417	-0.6772713446744663				-0.3909502825762424	1.5406302499785298	-0.9248932397737553				-0.43040072164415877	1.5675538344193385	-0.8780382375899174	-0.2922986175452163	1.9795131866296005	-0.666294467608864	-0.25707178352680904	2.039366373415894	-0.6396338323145363	-0.3155821567596133	1.9785041946975805	-0.5971237208025855	-0.29081206539550286	1.9126762525428949	-0.5657392688689395	-0.2641090382069703	1.9807595719250428	-0.6111483156422088	-0.2668219301305695	1.9818387402861488	-0.7435728339768354	-1.0676953540412035	1.815047608427031	0.03706670093545809	-0.24739652111928395	1.8140752908771258	-0.7247225780524806
19	0.6333333333333333	-0.30155927804713817	1.8275195817753938	-0.6634209750088178	-0.3132547112943605	1.8249982639619131	-0.6095658613117106	-0.3055131048010697	1.6953097513615092	-0.567950876773534	-0.30525031680934556	1.551749829350518	-0.537868994049019	-0.26950030092080607	1.5293995748363411	-0.5021072784639228	-0.2879909824647489	1.5312334740633775	-0.48194873514200787	-0.31136186465212123	1.5348821776823682	-0.5389025272571032	-0.28148712700687945	1.826619761461435	-0.7205273826021007	-0.2943522974255861	1.693280038491038	-0.6898857112699921				-0.3909502825762424	1.5406302499785298	-0.9248932397737553				-0.43040072164415877	1.5675538344193385	-0.8780382375899174	-0.29588755860416355	1.9811989883539798	-0.6784510802900466	-0.25894324332983754	2.0398710266449798	-0.6456333228898634	-0.3184151297531768	1.9799719485418925	-0.6065744671266968	-0.30016318062660435	1.9151836044341741	-0.5690895105091304	-0.27838646790121857	1.9882569725375092	-0.6140527647364612	-0.26874778866075466	1.9831750426330514	-0.749888347834496	-1.0574458458580245	1.8172652401879235	0.017536180959016774	-0.2512069271169943	1.8162936640282072	-0.7289606705448128
20	0.6666666666666666	-0.3019518361932513	1.830281150246063	-0.6635805979551288	-0.3166005087306705	1.8294737656214988	-0.6111376358014825	-0.3098493027904082	1.698946281858248	-0.5809820697165468	-0.30525031680934556	1.551749829350518	-0.537868994049019	-0.26950030092080607	1.5293995748363411	-0.5021072784639228	-0.29551296174627245	1.5347022277027502	-0.4910984211842028	-0.31136186465212123	1.5348821776823682	-0.5389025272571032	-0.2881403394384628	1.8302607014403398	-0.7141972906501176	-0.29631898748414875	1.6928894722544994	-0.696345487683879				-0.3909502825762424	1.5406302499785298	-0.9248932397737553				-0.43040072164415877	1.5675538344193385	-0.8780382375899174	-0.2971211723976925	1.9851302583331198	-0.6825212501785515	-0.2599603176483432	2.0413426278706983	-0.6490712181581458	-0.3206523629942543	1.9841767429376846	-0.6136956241425733	-0.3001402255939083	1.9167907638518331	-0.5779511404123218	-0.2688642463678188	1.9868507863843934	-0.6278642517908197	-0.2718936790110857	1.985766806215226	-0.7514430973706981	-1.044068890607163	1.8187070603878108	-0.006223932540985251	-0.2560199963603644	1.822982302407978	-0.744960690042894
